<?xml version="1.0" standalone="no"?>
<!DOCTYPE svg PUBLIC "-//W3C//DTD SVG 20010904//EN"
 "http://www.w3.org/TR/2001/REC-SVG-20010904/DTD/svg10.dtd">
<svg version="1.0" xmlns="http://www.w3.org/2000/svg"
 width="1200.000000pt" height="1200.000000pt" viewBox="0 0 1200.000000 1200.000000"
 preserveAspectRatio="xMidYMid meet">
<metadata>
Created by potrace 1.14, written by Peter Selinger 2001-2017
</metadata>
<g transform="translate(0.000000,1200.000000) scale(0.100000,-0.100000)"
fill="#000000" stroke="none">
<path d="M5846 11442 c-2 -1 -54 -4 -117 -7 -63 -2 -148 -7 -189 -10 -41 -4
-93 -9 -115 -10 -22 -2 -40 -4 -40 -5 0 -1 -18 -3 -40 -5 -55 -6 -110 -13
-110 -15 0 -1 -18 -3 -40 -6 -56 -6 -100 -12 -100 -14 0 -1 -9 -3 -20 -4 -85
-12 -229 -41 -355 -71 -58 -14 -116 -28 -130 -31 -39 -9 -44 -11 -60 -16 -20
-7 -104 -30 -110 -30 -3 0 -16 -5 -30 -10 -14 -5 -36 -12 -50 -15 -13 -2 -31
-10 -39 -16 -8 -7 -15 -10 -15 -8 -1 4 -61 -13 -96 -26 -8 -4 -17 -7 -20 -8
-31 -7 -118 -40 -126 -47 -7 -5 -16 -8 -20 -7 -5 1 -31 -7 -57 -19 -27 -12
-51 -22 -53 -22 -3 0 -24 -9 -47 -19 -23 -10 -71 -31 -107 -46 -87 -35 -351
-165 -370 -181 -8 -7 -19 -13 -25 -14 -20 -4 -406 -231 -425 -250 -3 -3 -25
-19 -50 -35 -25 -17 -46 -33 -48 -37 -2 -5 -8 -8 -13 -8 -6 0 -46 -27 -90 -60
-44 -33 -82 -60 -84 -60 -3 0 -13 -8 -23 -17 -24 -23 -49 -42 -89 -71 -33 -24
-92 -73 -130 -109 -13 -13 -26 -23 -28 -23 -2 0 -15 -10 -28 -22 -13 -13 -52
-48 -86 -78 -80 -70 -308 -297 -388 -386 -122 -137 -143 -161 -212 -250 -39
-49 -75 -94 -80 -100 -26 -32 -104 -138 -146 -199 -27 -38 -52 -71 -57 -73 -4
-2 -8 -8 -8 -13 0 -6 -17 -36 -38 -67 -22 -31 -73 -115 -116 -187 -42 -71 -81
-137 -86 -145 -11 -17 -218 -435 -230 -465 -4 -11 -15 -36 -23 -55 -32 -74
-49 -118 -82 -205 -50 -136 -86 -238 -90 -255 -2 -8 -10 -35 -18 -60 -16 -50
-35 -120 -38 -135 -1 -5 -6 -21 -11 -35 -5 -14 -12 -36 -14 -48 -3 -13 -12
-49 -20 -80 -8 -32 -17 -68 -20 -82 -3 -14 -7 -32 -9 -40 -3 -8 -7 -33 -11
-55 -3 -22 -8 -43 -10 -46 -2 -4 -6 -24 -9 -45 -4 -22 -8 -46 -10 -54 -3 -8
-7 -33 -10 -55 -4 -22 -8 -47 -10 -55 -3 -8 -7 -35 -10 -60 -3 -25 -7 -56 -10
-70 -5 -26 -15 -108 -21 -175 -2 -22 -6 -64 -9 -93 -14 -135 -17 -226 -17
-487 -1 -282 3 -362 27 -600 6 -68 13 -120 15 -120 1 0 3 -18 5 -40 3 -21 7
-55 10 -75 6 -32 13 -75 20 -125 2 -11 4 -22 5 -25 1 -3 2 -8 2 -11 0 -3 4
-23 9 -45 5 -21 12 -55 15 -74 2 -19 14 -69 24 -112 11 -42 20 -86 20 -97 0
-12 5 -21 11 -21 5 0 8 -4 5 -9 -3 -4 4 -39 14 -77 11 -38 22 -78 24 -89 2
-11 9 -33 16 -50 7 -16 14 -41 16 -54 3 -14 8 -29 12 -35 3 -6 7 -17 8 -26 2
-15 72 -214 98 -280 8 -19 28 -69 45 -110 16 -41 38 -93 47 -115 10 -22 18
-42 19 -45 0 -3 11 -24 23 -47 12 -23 22 -49 22 -57 0 -8 3 -16 7 -18 5 -1 46
-78 93 -171 46 -92 88 -167 92 -167 5 0 7 -3 6 -7 -3 -13 59 -121 92 -161 6
-6 8 -12 4 -12 -3 0 0 -7 7 -16 7 -9 18 -24 24 -34 27 -46 111 -174 123 -185
6 -8 12 -16 12 -19 0 -3 15 -25 32 -49 18 -24 42 -56 53 -71 40 -56 100 -131
107 -134 5 -2 8 -8 8 -14 0 -5 6 -15 13 -22 6 -7 28 -33 47 -57 19 -24 47 -56
63 -72 15 -16 27 -31 27 -33 0 -3 6 -11 13 -18 6 -8 48 -53 92 -102 44 -49
127 -136 185 -194 90 -89 147 -143 295 -275 63 -57 86 -75 93 -75 4 0 13 -9
20 -21 7 -12 16 -19 19 -16 3 3 15 -4 27 -17 11 -12 57 -49 101 -82 44 -32 89
-67 99 -76 11 -10 28 -20 38 -24 10 -3 18 -10 18 -15 0 -5 6 -9 14 -9 8 0 16
-4 18 -9 5 -13 260 -180 308 -201 13 -6 27 -15 30 -19 3 -4 48 -31 100 -60 52
-29 102 -56 110 -61 31 -18 317 -159 365 -180 28 -12 65 -29 84 -38 18 -8 39
-15 47 -15 8 0 14 -4 14 -8 0 -4 10 -11 23 -14 22 -7 166 -60 202 -75 30 -13
267 -91 288 -95 9 -2 22 -7 27 -10 6 -4 23 -9 38 -12 36 -7 44 -9 62 -16 8 -4
24 -8 35 -10 11 -1 26 -6 33 -10 6 -5 12 -6 12 -3 0 3 18 -1 40 -9 22 -8 40
-12 40 -10 0 2 18 -2 40 -10 22 -8 40 -12 40 -10 0 2 14 0 32 -5 17 -5 49 -12
72 -16 22 -3 44 -8 49 -11 4 -3 27 -7 50 -9 23 -3 49 -7 57 -10 8 -3 33 -8 55
-10 22 -3 51 -7 65 -10 81 -15 214 -32 305 -39 22 -2 40 -4 40 -5 0 -1 64 -6
215 -15 201 -12 574 -7 755 10 22 2 67 6 100 9 113 11 220 25 319 41 21 4 50
8 65 10 14 2 28 4 31 5 3 1 10 3 15 4 201 33 513 112 730 184 61 20 112 37
115 37 3 1 12 4 20 7 68 25 116 42 120 43 3 1 22 9 44 18 21 9 42 17 47 17 5
0 17 4 27 10 9 5 40 19 67 31 98 42 121 52 205 92 47 22 99 46 115 54 90 41
352 188 450 252 66 43 79 50 98 57 9 3 17 10 17 15 0 6 8 13 18 17 21 8 132
82 150 99 7 7 17 13 21 13 4 0 16 8 27 17 10 10 54 44 98 77 86 64 110 83 135
106 9 8 32 27 51 42 208 161 650 610 805 818 11 15 54 72 95 126 77 101 127
172 145 202 6 9 12 19 15 22 4 3 25 34 47 70 23 36 47 70 52 77 6 7 11 14 11
17 0 2 22 40 49 83 26 43 58 98 71 123 12 25 28 48 34 52 6 4 8 8 3 8 -4 0 3
17 16 37 24 40 149 291 190 383 34 76 139 340 141 354 1 6 4 16 8 21 12 20
107 325 133 425 17 69 37 149 41 170 3 14 7 33 10 42 6 19 11 43 24 113 6 28
13 61 16 75 3 14 7 38 9 54 2 15 7 35 9 45 3 9 8 39 11 67 3 28 7 60 9 71 6
29 14 93 31 253 15 134 19 235 18 535 0 182 -3 359 -6 395 -3 36 -9 94 -12
130 -3 36 -8 81 -10 100 -3 19 -7 55 -10 80 -3 25 -7 59 -10 75 -3 17 -7 44
-10 60 -2 17 -7 41 -10 55 -3 14 -7 41 -9 60 -2 19 -7 46 -10 60 -3 14 -8 36
-10 50 -2 14 -11 55 -20 91 -8 37 -17 78 -20 90 -8 44 -47 193 -73 278 -14 47
-26 89 -28 95 -1 6 -5 18 -8 26 -3 8 -22 64 -41 123 -40 119 -116 317 -149
387 -11 25 -21 47 -22 50 -1 3 -8 19 -15 35 -7 17 -14 32 -15 35 -2 9 -145
295 -168 335 -12 22 -42 75 -65 117 -24 43 -47 80 -53 83 -5 4 -7 11 -4 16 4
5 2 9 -3 9 -5 0 -15 14 -22 30 -7 17 -16 30 -21 30 -5 0 -9 5 -9 11 0 8 -159
251 -192 294 -5 6 -42 55 -83 110 -42 55 -83 109 -93 120 -9 11 -37 45 -62 76
-25 31 -52 63 -60 72 -8 8 -40 44 -70 78 -60 69 -385 399 -393 399 -3 0 -31
25 -62 55 -32 30 -61 55 -65 55 -4 0 -14 7 -21 17 -14 16 -188 157 -244 198
-16 11 -34 26 -41 33 -7 6 -17 12 -22 12 -6 0 -12 4 -14 8 -1 5 -48 40 -103
78 -55 37 -101 72 -103 76 -2 4 -8 8 -14 8 -5 0 -28 13 -51 29 -60 42 -227
141 -237 141 -4 0 -10 3 -12 8 -3 7 -20 17 -143 81 -38 20 -72 39 -73 44 -2 4
-7 5 -12 2 -5 -3 -15 2 -24 10 -8 9 -19 16 -23 16 -4 0 -53 22 -108 48 -89 43
-124 59 -200 92 -97 41 -131 56 -135 57 -9 1 -43 14 -102 38 -31 12 -59 19
-62 16 -3 -3 -6 0 -6 6 0 7 -3 11 -7 10 -7 -2 -186 54 -223 69 -8 3 -19 7 -25
9 -5 1 -61 16 -124 34 -62 17 -120 33 -130 35 -14 3 -76 17 -176 41 -53 12
-59 14 -99 19 -21 3 -42 8 -46 10 -5 3 -27 7 -50 10 -24 3 -46 7 -49 10 -4 2
-36 7 -71 10 -36 4 -67 8 -70 10 -3 1 -32 6 -65 10 -33 4 -76 9 -95 11 -35 5
-67 8 -190 18 -72 7 -264 17 -353 19 -31 1 -57 -1 -57 -5 0 -4 -6 -5 -13 -2
-14 5 -167 11 -171 6z"/>
</g>
</svg>
